<svg xmlns="http://www.w3.org/2000/svg" viewBox="0 0 432.92 96.37">
    <defs><style>.cls-1{fill:white;}.cls-2{fill:white;}</style></defs>
    <g id="logo">
        <path class="cls-1" d="M116.47,60.08c-.38,0-1.06.28-1.38,1.58A17.76,17.76,0,0,1,110.93,70c-2.5,2.79-4.94,5.69-6.15,9.37-.38,1.18-.74,2.74-2.55,2.51-1-.13-1.5-1.79-1-3.63.54-2,1.35-3.92,2-5.9a13.28,13.28,0,0,0,.9-4c0-3.08-1.55-4.14-4.45-3.21-2.7.85-5.39,1.8-8,2.8-4.42,1.69-15.44,6.21-18.08,6.83-1.33.31-2.11-.12-2.46-.83s.24-1.92,1.66-2.56c1.18-.53,15.8-7.13,16.6-7.72a1,1,0,0,0,.4-1.22c-.35-.54-2.17-.08-3.08.24-4.18,1.62-14.88,5.59-16.77,6a1.89,1.89,0,0,1-2.36-.8,1.43,1.43,0,0,1,.63-1.84c.6-.46,13.6-5.94,17.51-7.75,1-.48,1.84-1.47,1.53-2.19s-1.49-.17-2.11,0c-2.66.85-11.51,4.24-13.41,4.83-1,.29-2.53.53-3-.79-.35-1.08.95-1.59,1.86-2.09,1.33-.71,10.23-4.5,13.47-5.71A2.41,2.41,0,0,0,85.52,50c-.27-1-3.34-.18-5.79.44a28.9,28.9,0,0,1-4.09,1.05,1.32,1.32,0,0,1-1.39-.7c-.42-1,.59-1.79,2.23-2.48a79,79,0,0,1,7.87-2.69c3.35-1,5.58-1.38,8.86-2.54,2.57-.94,3.88-1.9,4.07-5.37V32.9c0-1.23,0-2.24,0-2.46H60.75V60.06H30.15c0,11.8,0,35.29,0,36.53h.11c4.14,0,7.8,0,12.49,0,.38,0,1.06-.28,1.38-1.58a17.85,17.85,0,0,1,4.16-8.34c2.5-2.79,4.94-5.69,6.15-9.37.38-1.18.74-2.74,2.55-2.51,1,.13,1.5,1.79,1,3.63-.54,2-1.35,3.92-2,5.9a13.28,13.28,0,0,0-.9,4c0,3.08,1.55,4.14,4.45,3.21,2.7-.85,5.39-1.8,8-2.8C72.08,87,83.1,82.48,85.74,81.86c1.34-.31,2.11.12,2.46.83s-.24,1.92-1.65,2.56C85.36,85.78,70.74,92.38,70,93a1,1,0,0,0-.41,1.22c.35.54,2.17.08,3.08-.24,4.18-1.62,14.88-5.59,16.77-6a1.89,1.89,0,0,1,2.36.8,1.44,1.44,0,0,1-.62,1.84c-.61.46-13.61,5.94-17.52,7.75-1,.48-1.84,1.47-1.53,2.19s1.49.17,2.11,0c2.66-.85,11.51-4.24,13.41-4.83,1-.29,2.54-.53,3,.79.35,1.08-.95,1.59-1.86,2.09-1.33.71-10.23,4.5-13.47,5.71a2.41,2.41,0,0,0-1.54,2.41c.27,1,3.34.18,5.79-.44a28.9,28.9,0,0,1,4.09-1,1.32,1.32,0,0,1,1.39.7c.42,1-.59,1.79-2.23,2.48A79,79,0,0,1,74.87,111c-3.35,1-6.74,2-10,3.12-2.83,1-4.13,2.09-4.1,6.51,0,2.23,0,5.73,0,6.17H97.29c0-.7,0-19.35,0-30.22H129.1V60.08H129C124.85,60.1,121.18,60.08,116.47,60.08Z" transform="translate(-30.14 -30.44)"/>
        <path class="cls-2" d="M329.88,96.29a14,14,0,0,1-5.61,1.08,14.62,14.62,0,0,1-4.63-.72,10.51,10.51,0,0,1-3.76-2.12,10.06,10.06,0,0,1-2.51-3.43,11,11,0,0,1-.93-4.64,9.36,9.36,0,0,1,.67-3.56A10.25,10.25,0,0,1,314.93,80a14.08,14.08,0,0,1,2.64-2.33,22.6,22.6,0,0,1,3.07-1.8,23.64,23.64,0,0,1-2.49-3.58,8.52,8.52,0,0,1-1-4.2,7.37,7.37,0,0,1,.79-3.43A8.61,8.61,0,0,1,320.07,62a9.74,9.74,0,0,1,3.05-1.68,10.68,10.68,0,0,1,3.56-.59,13,13,0,0,1,3.91.56A9.44,9.44,0,0,1,333.77,62a8.07,8.07,0,0,1,2.15,2.74,8.62,8.62,0,0,1,.79,3.79,8.09,8.09,0,0,1-1.87,5.43,15.73,15.73,0,0,1-4.63,3.69l4.71,5.78a9.47,9.47,0,0,0,.87-2.12,15.77,15.77,0,0,0,.46-2.23h6.3a19,19,0,0,1-1.13,4.76,15.94,15.94,0,0,1-2.4,4.25l7.42,8.65h-8.91l-3-3.63A15.59,15.59,0,0,1,329.88,96.29Zm-7.3-14.74a7.83,7.83,0,0,0-1.64,1.33,6.65,6.65,0,0,0-1.15,1.69,4.73,4.73,0,0,0-.43,2.05,4.16,4.16,0,0,0,.43,1.86A5.05,5.05,0,0,0,320.94,90a5.78,5.78,0,0,0,1.67,1,5.31,5.31,0,0,0,2,.38,6.32,6.32,0,0,0,3.4-.9,11.84,11.84,0,0,0,2.74-2.33l-6.24-7.62A13.61,13.61,0,0,0,322.58,81.55Zm6.79-15.93a3.18,3.18,0,0,0-2.33-1,3.29,3.29,0,0,0-2.31.9,3,3,0,0,0-1,2.33,4.84,4.84,0,0,0,.92,3c.62.81,1.26,1.65,1.95,2.5a14.15,14.15,0,0,0,2.63-2.09,4.27,4.27,0,0,0,1.11-3.13A3.45,3.45,0,0,0,329.37,65.62Z" transform="translate(-30.14 -30.44)"/><polygon class="cls-2" points="351.04 44.3 334.56 44.3 334.56 29.15 327.59 29.15 327.59 66.01 334.56 66.01 334.56 50.8 351.04 50.8 351.04 66.01 358 66.01 358 29.15 351.04 29.15 351.04 44.3"/><rect class="cls-2" x="394.74" y="28.43" width="6.96" height="37.63"/>
        <path class="cls-2" d="M461.44,75.17A12.78,12.78,0,0,0,456.87,70a12.47,12.47,0,0,0-6.92-1.9A11.15,11.15,0,0,0,443.32,70c-.17.12-.32.27-.48.4V68.09h-6.15V108.8h7V95.53a11.89,11.89,0,0,0,6.6,1.75A11.7,11.7,0,0,0,457,95.36a12.91,12.91,0,0,0,4.47-5.23,18.18,18.18,0,0,0,0-15ZM455,86.92a6.59,6.59,0,0,1-2.13,3,5.71,5.71,0,0,1-3.68,1.13,6,6,0,0,1-3.73-1,5.81,5.81,0,0,1-2-2.94,16.21,16.21,0,0,1,0-8.81,5.92,5.92,0,0,1,2-2.94,5.56,5.56,0,0,1,3.52-1,6.16,6.16,0,0,1,3.83,1.14,6.67,6.67,0,0,1,2.21,3,11.85,11.85,0,0,1,.72,4.21A12.36,12.36,0,0,1,455,86.92Z" transform="translate(-30.14 -30.44)"/>
        <path class="cls-2" d="M400.53,84.61c.63,4.71,3.08,6.11,6.6,6.11A4.68,4.68,0,0,0,411.29,88h8.38q-2.54,9.33-12.69,9.32a15.25,15.25,0,0,1-5.7-1,12.63,12.63,0,0,1-4.43-2.94A13.34,13.34,0,0,1,394,88.75a16.4,16.4,0,0,1-1-5.93,18.36,18.36,0,0,1,1-6.12,13.11,13.11,0,0,1,2.73-4.64A12,12,0,0,1,401,69.12a15,15,0,0,1,5.68-1,14.53,14.53,0,0,1,5.61,1,11.79,11.79,0,0,1,4.32,3A13.74,13.74,0,0,1,419.25,77a18.45,18.45,0,0,1,.75,6.34c0,.34-.09,1.34-.09,1.34Zm12.38-5.15c-.43-2.43-1-3.35-1.88-4.12a5.8,5.8,0,0,0-4-1.21,7,7,0,0,0-3.92,1.14,6.45,6.45,0,0,0-2.46,4.14Z" transform="translate(-30.14 -30.44)"/><polygon class="cls-2" points="142.1 44.34 125.61 44.34 125.61 29.19 118.65 29.19 118.65 66.05 125.61 66.05 125.61 50.85 142.1 50.85 142.1 66.05 149.06 66.05 149.06 29.19 142.1 29.19 142.1 44.34"/>
        <path class="cls-2" d="M238,73.1a8.05,8.05,0,0,0-4.3-3.89,17.33,17.33,0,0,0-6.5-1.13,12.93,12.93,0,0,0-7.88,2.15,10.66,10.66,0,0,0-4,5.58l6.41,1.72A3.66,3.66,0,0,1,224,75.17a7.94,7.94,0,0,1,3.2-.74,5.51,5.51,0,0,1,3.94,1.15,4.23,4.23,0,0,1,1.12,2.61l-3.34.5c-1.8.27-3.4.54-4.82.83a27,27,0,0,0-3.66,1,10.65,10.65,0,0,0-3.54,2,7.12,7.12,0,0,0-1.91,2.8,10.1,10.1,0,0,0-.59,3.51,8.6,8.6,0,0,0,1.06,4.21,7.71,7.71,0,0,0,3.13,3,10.25,10.25,0,0,0,5,1.14A12.52,12.52,0,0,0,229.58,96a12,12,0,0,0,3.5-2.93V96.5h6.09V79.6c0-1.26,0-2.41-.15-3.43A8.27,8.27,0,0,0,238,73.1Zm-6.5,15a6.87,6.87,0,0,1-1.06,1.46,7.35,7.35,0,0,1-2.1,1.55,7.06,7.06,0,0,1-3.24.67,5.41,5.41,0,0,1-2.07-.35,3,3,0,0,1-1.35-1,2.8,2.8,0,0,1-.47-1.63,2.74,2.74,0,0,1,.29-1.25,3.21,3.21,0,0,1,.93-1,7.15,7.15,0,0,1,1.65-.88,17.36,17.36,0,0,1,2.07-.61c.79-.19,1.82-.4,3.1-.63l3-.51c0,.48,0,1-.07,1.63A7,7,0,0,1,231.54,88.1Z" transform="translate(-30.14 -30.44)"/><rect class="cls-2" x="214.01" y="28.75" width="6.96" height="37.3"/>
        <path class="cls-2" d="M266.12,58.86h-7V69.13h-4.71v5.38h4.71V85.06c0,1.65,0,3.13,0,4.44a8.33,8.33,0,0,0,1.08,3.85,6.5,6.5,0,0,0,3.29,2.93,13.17,13.17,0,0,0,4.86.83,28.31,28.31,0,0,0,5.67-.61V90.71a16.08,16.08,0,0,1-4.48.49,3.48,3.48,0,0,1-2.94-1.58,4.07,4.07,0,0,1-.53-2.07c0-.86,0-1.83,0-2.9V74.51h4.08V69.13h-4.08Z" transform="translate(-30.14 -30.44)"/>
        <path class="cls-2" d="M299.38,75.44a11.79,11.79,0,0,0-1.63-3.52,8.69,8.69,0,0,0-3.18-2.79,11.24,11.24,0,0,0-5.3-1.1,13.2,13.2,0,0,0-6.72,1.31,7.11,7.11,0,0,0-2.24,1.57v-12h-6.2V96.5l7.07-1.18V82.47a12.37,12.37,0,0,1,.57-4.15A6,6,0,0,1,283.22,76a4.78,4.78,0,0,1,1.92-1.09,7.68,7.68,0,0,1,1.92-.28,5.27,5.27,0,0,1,3.45,1,5.67,5.67,0,0,1,1.75,2.48,10.92,10.92,0,0,1,.64,3c.07,1,.1,1.79.1,2.42V96.5h7.07V81c0-.46,0-1.19-.1-2.2A18.27,18.27,0,0,0,299.38,75.44Z" transform="translate(-30.14 -30.44)"/>
        <path class="cls-2" d="M191.62,84.6c.63,4.7,3.08,6.11,6.59,6.11a4.67,4.67,0,0,0,4.16-2.77h8.38q-2.53,9.33-12.68,9.32a15.18,15.18,0,0,1-5.7-1,12.54,12.54,0,0,1-4.43-2.94,13.21,13.21,0,0,1-2.85-4.55,16.67,16.67,0,0,1-1-5.94,18.3,18.3,0,0,1,1-6.11,13.11,13.11,0,0,1,2.73-4.64,12,12,0,0,1,4.29-2.94A16.51,16.51,0,0,1,203.35,69a11.93,11.93,0,0,1,4.32,3.06,13.48,13.48,0,0,1,2.66,4.84,18.2,18.2,0,0,1,.76,6.34c0,.34-.1,1.34-.1,1.34ZM204,79.45c-.43-2.43-1-3.35-1.88-4.12a5.74,5.74,0,0,0-4-1.21,7,7,0,0,0-3.93,1.14,6.53,6.53,0,0,0-2.46,4.14Z" transform="translate(-30.14 -30.44)"/>
    </g>
</svg>
