<?xml version="1.0" encoding="utf-8"?>
<!-- Generator: Adobe Illustrator 25.0.0, SVG Export Plug-In . SVG Version: 6.00 Build 0)  -->
<svg version="1.1" id="Layer_1" xmlns="http://www.w3.org/2000/svg" xmlns:xlink="http://www.w3.org/1999/xlink" x="0px" y="0px"
     width="487px" height="154.7px" viewBox="0 0 487 154.7" style="enable-background:new 0 0 487 154.7;" xml:space="preserve">
<style type="text/css">
	.st0{fill:#D35357;}
</style>
    <g id="logo">
	<path class="st0" d="M113.4,58.8c-0.4,0-1.1,0.3-1.4,1.6c-0.6,3.1-2.1,6-4.2,8.3c-2.5,2.8-4.9,5.7-6.2,9.4
		c-0.4,1.2-0.7,2.7-2.6,2.5c-1-0.1-1.5-1.8-1-3.6c0.5-2,1.3-3.9,2-5.9c0.5-1.3,0.8-2.6,0.9-4c0-3.1-1.6-4.1-4.4-3.2
		c-2.7,0.8-5.4,1.8-8,2.8c-4.4,1.7-15.4,6.2-18.1,6.8c-1.3,0.3-2.1-0.1-2.5-0.8s0.2-1.9,1.7-2.6c1.2-0.5,15.8-7.1,16.6-7.7
		c0.4-0.3,0.6-0.8,0.4-1.2c-0.3-0.5-2.2-0.1-3.1,0.2c-4.2,1.6-14.9,5.6-16.8,6c-0.9,0.4-1.9,0-2.4-0.8c-0.3-0.7,0-1.5,0.6-1.8
		c0.6-0.5,13.6-5.9,17.5-7.8c1-0.5,1.8-1.5,1.5-2.2s-1.5-0.2-2.1,0c-2.7,0.8-11.5,4.2-13.4,4.8c-1,0.3-2.5,0.5-3-0.8
		c-0.3-1.1,0.9-1.6,1.9-2.1c1.3-0.7,10.2-4.5,13.5-5.7c0.9-0.4,1.5-1.3,1.5-2.3c-0.3-1-3.3-0.2-5.8,0.4c-1.3,0.4-2.7,0.8-4.1,1
		c-0.6,0.1-1.1-0.2-1.4-0.7c-0.4-1,0.6-1.8,2.2-2.5c2.6-1,5.2-1.9,7.9-2.7c3.3-1,5.6-1.4,8.9-2.5c2.6-0.9,3.9-1.9,4.1-5.4v-4.8
		c0-1.2,0-2.2,0-2.5H57.6v29.6H27c0,11.8,0,35.3,0,36.5h0.1c4.1,0,7.8,0,12.5,0c0.4,0,1.1-0.3,1.4-1.6c0.6-3.1,2.1-6,4.2-8.3
		c2.5-2.8,4.9-5.7,6.2-9.4c0.4-1.2,0.7-2.7,2.5-2.5c1,0.1,1.5,1.8,1,3.6c-0.5,2-1.3,3.9-2,5.9c-0.5,1.3-0.8,2.6-0.9,4
		c0,3.1,1.5,4.1,4.5,3.2c2.7-0.8,5.4-1.8,8-2.8c4.5-1.7,15.6-6.2,18.2-6.9c1.3-0.3,2.1,0.1,2.5,0.8s-0.2,1.9-1.7,2.6
		c-1.2,0.5-15.8,7.1-16.5,7.8c-0.4,0.3-0.6,0.8-0.4,1.2c0.3,0.5,2.2,0.1,3.1-0.2c4.2-1.6,14.9-5.6,16.8-6c0.9-0.4,1.9,0,2.4,0.8
		c0.3,0.7,0,1.5-0.6,1.8c-0.6,0.5-13.6,5.9-17.5,7.8c-1,0.5-1.8,1.5-1.5,2.2s1.5,0.2,2.1,0c2.7-0.8,11.5-4.2,13.4-4.8
		c1-0.3,2.5-0.5,3,0.8c0.3,1.1-0.9,1.6-1.9,2.1c-1.3,0.7-10.2,4.5-13.5,5.7c-1,0.4-1.6,1.4-1.5,2.4c0.3,1,3.3,0.2,5.8-0.4
		c1.3-0.4,2.7-0.8,4.1-1c0.6-0.1,1.1,0.2,1.4,0.7c0.4,1-0.6,1.8-2.2,2.5c-2.6,1-5.3,1.8-7.9,2.5c-3.3,1-6.7,2-10,3.1
		c-2.8,1-4.1,2.1-4.1,6.5c0,2.2,0,5.7,0,6.2h36.5c0-0.7,0-19.3,0-30.2H126V58.8h-0.1C121.7,58.8,118.1,58.8,113.4,58.8z"/>
        <path d="M326.8,95c-1.8,0.7-3.7,1.1-5.6,1.1c-1.6,0-3.1-0.2-4.6-0.7c-1.4-0.4-2.7-1.2-3.8-2.1c-1.1-1-1.9-2.1-2.5-3.4
		c-0.6-1.5-1-3-0.9-4.6c0-1.2,0.2-2.4,0.7-3.6c0.4-1.1,1.1-2,1.8-2.9c0.8-0.9,1.7-1.7,2.6-2.3c1-0.7,2-1.3,3.1-1.8
		c-0.9-1.1-1.8-2.3-2.5-3.6c-0.7-1.3-1-2.7-1-4.2c0-1.2,0.3-2.4,0.8-3.4c0.5-1,1.2-1.9,2.1-2.7c0.9-0.7,1.9-1.3,3-1.7
		c1.1-0.4,2.3-0.6,3.6-0.6c1.3,0,2.6,0.2,3.9,0.6c1.2,0.4,2.2,0.9,3.2,1.7c0.9,0.7,1.6,1.7,2.1,2.7c0.5,1.2,0.8,2.5,0.8,3.8
		c0.1,2-0.6,3.9-1.9,5.4c-1.3,1.5-2.9,2.8-4.6,3.7l4.7,5.8c0.4-0.7,0.7-1.4,0.9-2.1c0.2-0.7,0.4-1.5,0.5-2.2h6.3
		c-0.2,1.6-0.5,3.2-1.1,4.8c-0.6,1.5-1.4,3-2.4,4.2l7.4,8.7h-8.9l-3-3.6C330.1,93.2,328.5,94.3,326.8,95z M319.5,80.3
		c-0.6,0.4-1.2,0.8-1.6,1.3c-0.5,0.5-0.9,1.1-1.1,1.7c-0.3,0.6-0.4,1.3-0.4,2.1c0,0.6,0.1,1.3,0.4,1.9c0.3,0.6,0.7,1.1,1.1,1.5
		c0.5,0.4,1.1,0.8,1.7,1c0.6,0.3,1.3,0.4,2,0.4c1.2,0,2.4-0.3,3.4-0.9c1-0.6,2-1.4,2.7-2.3l-6.2-7.6
		C320.7,79.6,320.1,79.9,319.5,80.3L319.5,80.3z M326.3,64.4c-0.6-0.6-1.4-1-2.3-1c-0.9,0-1.7,0.3-2.3,0.9c-0.7,0.6-1,1.4-1,2.3
		c0,1.1,0.3,2.1,0.9,3c0.6,0.8,1.3,1.7,2,2.5c1-0.6,1.8-1.3,2.6-2.1c0.8-0.9,1.2-2,1.1-3.1C327.3,65.9,326.9,65,326.3,64.4
		L326.3,64.4z"/>
        <polygon points="378.1,73.5 361.6,73.5 361.6,58.3 354.6,58.3 354.6,95.2 361.6,95.2 361.6,80 378.1,80 378.1,95.2 385,95.2
		385,58.3 378.1,58.3 	"/>
        <rect x="421.8" y="57.6" width="7" height="37.6"/>
        <path d="M458.3,73.9c-1-2.1-2.6-3.9-4.6-5.2c-2.1-1.3-4.5-2-6.9-1.9c-2.4-0.1-4.7,0.6-6.6,1.9c-0.2,0.1-0.3,0.3-0.5,0.4v-2.3h-6.1
		v40.7h7V94.3c2,1.2,4.3,1.8,6.6,1.8c2.4,0.1,4.7-0.6,6.7-1.9c1.9-1.3,3.5-3.1,4.5-5.2C460.5,84.1,460.5,78.6,458.3,73.9L458.3,73.9
		z M451.9,85.7c-0.4,1.2-1.1,2.2-2.1,3c-1.1,0.8-2.4,1.2-3.7,1.1c-1.3,0.1-2.6-0.3-3.7-1c-1-0.7-1.7-1.8-2-2.9
		c-0.8-2.9-0.8-5.9,0-8.8c0.3-1.2,1-2.2,2-2.9c1-0.7,2.3-1.1,3.5-1c1.4-0.1,2.7,0.3,3.8,1.1c1,0.8,1.8,1.8,2.2,3
		c0.5,1.3,0.7,2.8,0.7,4.2C452.6,82.9,452.4,84.3,451.9,85.7z"/>
        <path d="M397.4,83.3c0.6,4.7,3.1,6.1,6.6,6.1c1.8,0,3.4-1.1,4.2-2.7h8.4c-1.7,6.2-5.9,9.3-12.7,9.3c-1.9,0-3.9-0.3-5.7-1
		c-1.7-0.7-3.2-1.7-4.4-2.9c-1.3-1.3-2.2-2.9-2.9-4.6c-0.7-1.9-1-3.9-1-5.9c0-2.1,0.3-4.2,1-6.1c0.6-1.7,1.5-3.3,2.7-4.6
		c1.2-1.3,2.6-2.3,4.3-2.9c1.8-0.7,3.7-1,5.7-1c1.9,0,3.8,0.3,5.6,1c1.6,0.7,3.1,1.7,4.3,3c1.2,1.4,2.1,3.1,2.6,4.9
		c0.6,2.1,0.9,4.2,0.8,6.3c0,0.3-0.1,1.3-0.1,1.3L397.4,83.3z M409.8,78.2c-0.4-2.4-1-3.3-1.9-4.1c-1.1-0.9-2.6-1.3-4-1.2
		c-1.4,0-2.8,0.4-3.9,1.1c-1.3,1-2.2,2.5-2.5,4.1L409.8,78.2z"/>
        <polygon points="169.1,73.5 152.6,73.5 152.6,58.4 145.7,58.4 145.7,95.2 152.6,95.2 152.6,80 169.1,80 169.1,95.2 176.1,95.2
		176.1,58.4 169.1,58.4 	"/>
        <path d="M234.9,71.8c-0.9-1.8-2.4-3.2-4.3-3.9c-2.1-0.8-4.3-1.2-6.5-1.1c-2.8-0.2-5.6,0.6-7.9,2.2c-1.9,1.4-3.3,3.3-4,5.6l6.4,1.7
		c0.3-1.1,1.2-2,2.3-2.4c1-0.5,2.1-0.7,3.2-0.7c1.4-0.1,2.8,0.3,3.9,1.2c0.7,0.7,1.1,1.6,1.1,2.6l-3.3,0.5c-1.8,0.3-3.4,0.5-4.8,0.8
		c-1.2,0.2-2.5,0.6-3.7,1c-1.3,0.4-2.5,1.1-3.5,2c-0.9,0.8-1.5,1.7-1.9,2.8c-0.4,1.1-0.6,2.3-0.6,3.5c0,1.5,0.4,2.9,1.1,4.2
		c0.7,1.3,1.8,2.3,3.1,3c1.5,0.8,3.3,1.2,5,1.1c2.1,0.1,4.1-0.3,6-1.2c1.3-0.7,2.5-1.7,3.5-2.9v3.4h6.1V78.3c0-1.3,0-2.4-0.1-3.4
		C235.8,73.8,235.4,72.8,234.9,71.8z M228.4,86.8c-0.3,0.5-0.6,1-1.1,1.5c-0.6,0.6-1.3,1.2-2.1,1.6c-1,0.5-2.1,0.7-3.2,0.7
		c-0.7,0-1.4-0.1-2.1-0.3c-0.5-0.2-1-0.5-1.4-1c-0.3-0.5-0.5-1.1-0.5-1.6c0-0.4,0.1-0.9,0.3-1.2c0.2-0.4,0.6-0.7,0.9-1
		c0.5-0.4,1.1-0.7,1.6-0.9c0.7-0.2,1.4-0.4,2.1-0.6c0.8-0.2,1.8-0.4,3.1-0.6l3-0.5c0,0.5,0,1-0.1,1.6C229,85.2,228.8,86,228.4,86.8
		L228.4,86.8z"/>
        <rect x="241" y="57.9" width="7" height="37.3"/>
        <path d="M263,57.6h-7v10.3h-4.7v5.4h4.7v10.6c0,1.7,0,3.1,0,4.4c0,1.4,0.4,2.7,1.1,3.8c0.7,1.3,1.9,2.4,3.3,2.9
		c1.6,0.6,3.2,0.9,4.9,0.8c1.9,0,3.8-0.2,5.7-0.6v-5.8c-1.5,0.4-3,0.5-4.5,0.5c-1.2,0-2.3-0.6-2.9-1.6c-0.4-0.6-0.5-1.3-0.5-2.1
		c0-0.9,0-1.8,0-2.9V73.2h4.1v-5.4H263L263,57.6z"/>
        <path d="M296.3,74.2c-0.3-1.3-0.9-2.4-1.6-3.5c-0.8-1.2-1.9-2.1-3.2-2.8c-1.7-0.8-3.5-1.2-5.3-1.1c-2.3-0.2-4.6,0.3-6.7,1.3
		c-0.8,0.4-1.6,0.9-2.2,1.6v-12H271v37.6l7.1-1.2V81.2c0-1.4,0.1-2.8,0.6-4.2c0.3-0.9,0.8-1.7,1.5-2.3c0.5-0.5,1.2-0.9,1.9-1.1
		c0.6-0.2,1.3-0.3,1.9-0.3c1.2-0.1,2.5,0.3,3.5,1c0.8,0.7,1.4,1.5,1.8,2.5c0.4,1,0.6,2,0.6,3c0.1,1,0.1,1.8,0.1,2.4v13h7.1V79.7
		c0-0.5,0-1.2-0.1-2.2C296.8,76.4,296.6,75.3,296.3,74.2z"/>
        <path d="M188.5,83.3c0.6,4.7,3.1,6.1,6.6,6.1c1.8,0,3.4-1.1,4.2-2.8h8.4C206,92.9,201.7,96,195,96c-1.9,0-3.9-0.3-5.7-1
		c-1.7-0.7-3.2-1.7-4.4-2.9c-1.3-1.3-2.2-2.9-2.9-4.6c-0.7-1.9-1-3.9-1-5.9c0-2.1,0.3-4.1,1-6.1c0.6-1.7,1.5-3.3,2.7-4.6
		c1.2-1.3,2.7-2.3,4.3-2.9c3.6-1.4,7.6-1.4,11.2-0.1c1.7,0.7,3.1,1.7,4.3,3.1c1.2,1.4,2.1,3.1,2.7,4.8c0.6,2.1,0.9,4.2,0.8,6.3
		c0,0.3-0.1,1.3-0.1,1.3L188.5,83.3z M200.9,78.2c-0.4-2.4-1-3.3-1.9-4.1c-1.1-0.9-2.6-1.3-4-1.2c-1.4,0-2.8,0.4-3.9,1.1
		c-1.3,1-2.2,2.5-2.5,4.1L200.9,78.2z"/>
</g>
</svg>
