<svg width="547" height="126" viewBox="0 0 547 126" fill="none" xmlns="http://www.w3.org/2000/svg">
<path d="M109.051 38.6949C108.546 38.6949 107.663 39.0844 107.284 40.7725C106.527 44.7978 104.633 48.5634 101.983 51.5499C98.8275 55.1857 95.7983 58.9513 94.1575 63.7557C93.6527 65.3139 93.274 67.2616 90.8759 67.0019C89.6137 66.8721 88.9826 64.6646 89.6137 62.3274C90.2448 59.7304 91.2545 57.2633 92.1381 54.6663C92.7691 52.9782 93.1478 51.2902 93.274 49.4723C93.274 45.447 91.2545 44.1485 87.7205 45.3172C84.3126 46.356 80.9048 47.6544 77.6232 48.9529C72.0696 51.1604 58.1858 57.0036 54.778 57.7826C53.1372 58.1722 52.1274 57.6528 51.6226 56.7439C51.1177 55.8349 51.875 54.2767 53.7682 53.3678C55.2828 52.7185 73.7104 44.1485 74.7202 43.3694C75.225 42.9799 75.4775 42.3307 75.225 41.8113C74.8464 41.162 72.4483 41.6814 71.3123 42.071C66.0112 44.1485 52.5061 49.3425 50.108 49.8619C48.972 50.3813 47.7098 49.8619 47.0788 48.8231C46.7001 47.9142 47.0788 46.8754 47.8361 46.4858C48.5934 45.8366 65.0015 38.8247 69.924 36.3576C71.1861 35.7084 72.1959 34.4099 71.8172 33.5009C71.4386 32.592 69.924 33.2413 69.1667 33.5009C65.7588 34.5397 54.6518 38.9546 52.2536 39.7337C50.9915 40.1232 49.0982 40.3829 48.4671 38.6949C48.0885 37.2666 49.6031 36.6173 50.8653 35.9681C52.5061 35.0591 63.7393 30.1249 67.9045 28.5667C69.0404 28.0473 69.7977 26.8787 69.7977 25.5802C69.4191 24.2817 65.6326 25.3205 62.4772 26.0996C60.8364 26.619 59.0693 27.1384 57.3023 27.3981C56.545 27.5279 55.9139 27.1384 55.5353 26.4891C55.0304 25.1906 56.2926 24.1518 58.312 23.2429C61.5937 21.9444 64.8753 20.7758 68.2831 19.737C72.4483 18.4385 75.3513 17.9191 79.5164 16.4908C82.798 15.3221 84.4389 14.0237 84.6913 9.47895V3.24622C84.6913 1.68803 84.6913 0.389546 84.6913 0H38.6223V38.4352H0C0 53.7573 0 84.2718 0 85.83H0.126217C5.30109 85.83 9.9711 85.83 15.9033 85.83C16.4081 85.83 17.2917 85.4404 17.6703 83.7524C18.4276 79.7271 20.3209 75.9615 22.9714 72.9749C26.1268 69.3392 29.156 65.5736 30.7968 60.7692C31.3017 59.211 31.6803 57.2633 33.9522 57.523C35.2144 57.6528 35.8455 59.8602 35.2144 62.1975C34.5833 64.7945 33.5736 67.2616 32.6901 69.8586C32.059 71.5466 31.6803 73.2346 31.5541 75.0525C31.5541 79.0778 33.4474 80.3763 37.2339 79.2077C40.6417 78.1689 44.0496 76.8704 47.3312 75.5719C53.0109 73.3645 67.021 67.5213 70.3026 66.6124C71.9434 66.2228 72.9531 66.7422 73.458 67.6511C73.9629 68.5601 73.2056 70.1183 71.3123 71.0272C69.7977 71.6765 51.3701 80.2465 50.4866 81.1554C49.9817 81.545 49.7293 82.1942 49.9817 82.7136C50.3604 83.3628 52.7585 82.8434 53.8945 82.4539C59.1955 80.3763 72.7007 75.1824 75.0988 74.663C76.2348 74.1436 77.4969 74.663 78.128 75.7018C78.5067 76.6107 78.128 77.6495 77.3707 78.039C76.6134 78.6883 60.2053 85.7001 55.2828 88.1672C54.0207 88.8165 53.0109 90.115 53.3896 91.0239C53.7682 91.9328 55.2828 91.2836 56.0401 91.0239C59.448 89.9851 70.555 85.5703 72.9532 84.7912C74.2153 84.4016 76.1086 84.1419 76.7396 85.83C77.1183 87.2583 75.6037 87.9075 74.3415 88.5568C72.7007 89.4657 61.4674 94.4 57.3023 95.9582C56.0401 96.4775 55.2828 97.776 55.4091 99.0745C55.7877 100.373 59.5742 99.3342 62.7296 98.5551C64.3704 98.0357 66.1375 97.5163 67.9045 97.2566C68.6618 97.1268 69.2929 97.5163 69.6715 98.1656C70.1764 99.4641 68.9142 100.503 66.8948 101.412C63.6131 102.71 60.2053 103.749 56.9236 104.658C52.7585 105.956 48.4671 107.255 44.302 108.683C40.7679 109.982 39.1271 111.41 39.1271 117.123C39.1271 119.98 39.1271 124.525 39.1271 125.174H85.1962C85.1962 124.265 85.1962 100.113 85.1962 85.9598H124.954V38.6949H124.828C119.527 38.6949 114.983 38.6949 109.051 38.6949Z" fill="#D35357"/>
<path d="M378.397 85.7001C376.125 86.6091 373.727 87.1285 371.329 87.1285C369.309 87.1285 367.416 86.8688 365.523 86.2195C363.756 85.7001 362.115 84.6613 360.727 83.4927C359.338 82.1942 358.329 80.7659 357.571 79.0778C356.814 77.1301 356.309 75.1824 356.435 73.1048C356.435 71.5466 356.688 69.9884 357.319 68.4302C357.824 67.0019 358.707 65.8333 359.591 64.6646C360.6 63.496 361.736 62.4572 362.872 61.6781C364.135 60.7692 365.397 59.9901 366.785 59.3408C365.649 57.9125 364.513 56.3543 363.63 54.6663C362.746 52.9783 362.368 51.1604 362.368 49.2126C362.368 47.6545 362.746 46.0963 363.377 44.7978C364.008 43.4993 364.892 42.3307 366.028 41.2919C367.164 40.3829 368.426 39.6038 369.814 39.0844C371.203 38.5651 372.717 38.3054 374.358 38.3054C375.999 38.3054 377.64 38.5651 379.281 39.0844C380.795 39.6038 382.057 40.2531 383.319 41.2919C384.455 42.2008 385.339 43.4993 385.97 44.7978C386.601 46.356 386.98 48.044 386.98 49.732C387.106 52.329 386.222 54.7961 384.582 56.7439C382.941 58.6916 380.921 60.3796 378.776 61.5483L384.708 69.0795C385.213 68.1705 385.591 67.2616 385.844 66.3527C386.096 65.4437 386.349 64.4049 386.475 63.496H394.427C394.174 65.5736 393.795 67.6512 393.038 69.7287C392.281 71.6765 391.271 73.6242 390.009 75.1824L399.349 86.4792H388.116L384.329 81.8047C382.562 83.3628 380.543 84.7912 378.397 85.7001ZM369.183 66.6124C368.426 67.1318 367.669 67.6512 367.164 68.3004C366.533 68.9496 366.028 69.7287 365.775 70.5078C365.397 71.2869 365.271 72.1959 365.271 73.2346C365.271 74.0137 365.397 74.9227 365.775 75.7018C366.154 76.4809 366.659 77.1301 367.164 77.6495C367.795 78.1689 368.552 78.6883 369.309 78.948C370.067 79.3375 370.95 79.4674 371.834 79.4674C373.348 79.4674 374.863 79.0778 376.125 78.2987C377.387 77.5197 378.649 76.4809 379.533 75.3122L371.708 65.4437C370.698 65.7034 369.941 66.093 369.183 66.6124ZM377.766 45.9664C377.009 45.1873 375.999 44.6679 374.863 44.6679C373.727 44.6679 372.717 45.0575 371.96 45.8366C371.076 46.6157 370.698 47.6545 370.698 48.8231C370.698 50.2514 371.076 51.5499 371.834 52.7186C372.591 53.7573 373.475 54.926 374.358 55.9648C375.62 55.1857 376.63 54.2767 377.64 53.238C378.649 52.0693 379.154 50.641 379.028 49.2126C379.028 47.9142 378.523 46.7455 377.766 45.9664Z" fill="#1E1E1E"/>
<path d="M443.146 57.7827H422.321V38.0457H413.485V85.9598H422.321V66.2228H443.146V85.9598H451.855V38.0457H443.146V57.7827Z" fill="#1E1E1E"/>
<path d="M507.138 37.1367H498.303V85.9598H507.138V37.1367Z" fill="#1E1E1E"/>
<path d="M544.372 58.302C543.11 55.5752 541.09 53.2379 538.566 51.5499C535.915 49.8619 532.886 48.9529 529.857 49.0828C526.828 48.9529 523.925 49.8619 521.527 51.5499C521.274 51.6798 521.148 51.9395 520.896 52.0693V49.0828H513.196V101.931H522.031V84.7912C524.556 86.3494 527.459 87.1284 530.362 87.1284C533.391 87.2583 536.294 86.3493 538.818 84.6613C541.216 82.9733 543.236 80.636 544.498 77.9092C547.149 71.5466 547.149 64.4049 544.372 58.302ZM536.294 73.6242C535.789 75.1824 534.906 76.4809 533.643 77.5196C532.255 78.5584 530.614 79.0778 528.973 78.948C527.333 79.0778 525.692 78.5584 524.303 77.6495C523.041 76.7406 522.158 75.3122 521.779 73.8839C520.769 70.1183 520.769 66.2228 521.779 62.4572C522.158 60.899 523.041 59.6005 524.303 58.6916C525.565 57.7826 527.206 57.2633 528.721 57.3931C530.488 57.2633 532.129 57.7827 533.517 58.8214C534.779 59.8602 535.789 61.1587 536.294 62.7169C536.925 64.4049 537.177 66.3527 537.177 68.1705C537.177 69.9884 536.925 71.8063 536.294 73.6242Z" fill="#1E1E1E"/>
<path d="M467.506 70.5078C468.263 76.6107 471.419 78.4286 475.836 78.4286C478.108 78.4286 480.128 77.0003 481.137 74.9227H491.74C489.594 82.9733 484.293 86.9986 475.71 86.9986C473.312 86.9986 470.788 86.6091 468.516 85.7001C466.37 84.7912 464.477 83.4927 462.962 81.9345C461.321 80.2465 460.185 78.1689 459.302 75.9615C458.418 73.4943 458.04 70.8974 458.04 68.3004C458.04 65.5736 458.418 62.8468 459.302 60.3796C460.059 58.1722 461.195 56.0946 462.71 54.4066C464.224 52.7186 465.991 51.4201 468.137 50.641C470.409 49.732 472.807 49.3425 475.331 49.3425C477.73 49.3425 480.128 49.732 482.4 50.641C484.419 51.5499 486.312 52.8484 487.827 54.5364C489.341 56.3543 490.477 58.5618 491.109 60.899C491.866 63.6259 492.244 66.3527 492.118 69.0795C492.118 69.469 491.992 70.7675 491.992 70.7675L467.506 70.5078ZM483.157 63.8855C482.652 60.7692 481.895 59.6005 480.759 58.5618C479.37 57.3931 477.477 56.8737 475.71 57.0036C473.943 57.0036 472.176 57.523 470.788 58.4319C469.147 59.7304 468.011 61.6781 467.632 63.7557L483.157 63.8855Z" fill="#1E1E1E"/>
<path d="M179.354 57.7827H158.528V38.1755H149.819V85.9598H158.528V66.2228H179.354V85.9598H188.189V38.1755H179.354V57.7827Z" fill="#1E1E1E"/>
<path d="M262.404 55.5752C261.268 53.238 259.375 51.4201 256.977 50.5111C254.326 49.4723 251.55 48.9529 248.773 49.0828C245.239 48.8231 241.705 49.8619 238.802 51.9395C236.404 53.7573 234.637 56.2245 233.753 59.211L241.831 61.4184C242.21 59.9901 243.345 58.8214 244.734 58.302C245.996 57.6528 247.384 57.3931 248.773 57.3931C250.54 57.2633 252.307 57.7827 253.695 58.9513C254.579 59.8602 255.084 61.0289 255.084 62.3274L250.918 62.9766C248.647 63.3661 246.627 63.6258 244.86 64.0154C243.345 64.2751 241.705 64.7945 240.19 65.3139C238.549 65.8333 237.035 66.7422 235.772 67.9109C234.637 68.9496 233.879 70.1183 233.374 71.5466C232.869 72.9749 232.617 74.5331 232.617 76.0913C232.617 78.039 233.122 79.8569 234.005 81.545C234.889 83.233 236.277 84.5315 237.918 85.4404C239.811 86.4792 242.083 86.9986 244.229 86.8688C246.88 86.9986 249.404 86.4792 251.802 85.3106C253.443 84.4016 254.957 83.1031 256.22 81.545V85.9598H263.919V64.0154C263.919 62.3274 263.919 60.899 263.793 59.6005C263.54 58.1722 263.035 56.8737 262.404 55.5752ZM254.2 75.0525C253.821 75.7018 253.443 76.351 252.812 77.0003C252.054 77.7793 251.171 78.5584 250.161 79.0778C248.899 79.7271 247.511 79.9868 246.122 79.9868C245.239 79.9868 244.355 79.8569 243.472 79.5972C242.841 79.3375 242.21 78.948 241.705 78.2987C241.326 77.6495 241.074 76.8704 241.074 76.2212C241.074 75.7018 241.2 75.0525 241.452 74.663C241.705 74.1436 242.21 73.754 242.588 73.3645C243.219 72.8451 243.977 72.4555 244.608 72.1959C245.491 71.9362 246.375 71.6765 247.258 71.4168C248.268 71.1571 249.53 70.8974 251.171 70.6377L254.957 69.9884C254.957 70.6377 254.957 71.2869 254.831 72.066C254.957 72.9749 254.705 74.0137 254.2 75.0525Z" fill="#1E1E1E"/>
<path d="M278.939 37.5263H270.103V85.9598H278.939V37.5263Z" fill="#1E1E1E"/>
<path d="M297.871 37.1367H289.036V50.5111H283.104V57.523H289.036V71.2869C289.036 73.4943 289.036 75.3122 289.036 77.0003C289.036 78.8181 289.541 80.5062 290.424 81.9345C291.308 83.6225 292.822 85.0509 294.589 85.7001C296.609 86.4792 298.628 86.8688 300.774 86.7389C303.172 86.7389 305.57 86.4792 307.968 85.9598V78.4286C306.075 78.948 304.182 79.0778 302.289 79.0778C300.774 79.0778 299.386 78.2987 298.628 77.0003C298.124 76.2212 297.997 75.3122 297.997 74.2734C297.997 73.1048 297.997 71.9362 297.997 70.5078V57.3931H303.172V50.3813H297.871V37.1367Z" fill="#1E1E1E"/>
<path d="M339.901 58.6916C339.522 57.0036 338.765 55.5752 337.882 54.1469C336.872 52.5887 335.483 51.4201 333.843 50.5111C331.697 49.4723 329.425 48.953 327.153 49.0828C324.25 48.8231 321.347 49.4723 318.697 50.7708C317.687 51.2902 316.677 51.9395 315.92 52.8484V37.2666H307.968V86.0897L316.93 84.5315V67.781C316.93 65.9631 317.056 64.1452 317.687 62.3274C318.066 61.1587 318.697 60.1199 319.58 59.3408C320.211 58.6916 321.095 58.1722 321.978 57.9125C322.736 57.6528 323.619 57.523 324.376 57.523C325.891 57.3931 327.532 57.9125 328.794 58.8215C329.804 59.7304 330.561 60.7692 331.066 62.0677C331.571 63.3662 331.823 64.6646 331.823 65.9631C331.949 67.2616 331.949 68.3004 331.949 69.0795V85.9598H340.911V65.8333C340.911 65.184 340.911 64.2751 340.785 62.9766C340.532 61.5483 340.28 60.1199 339.901 58.6916Z" fill="#1E1E1E"/>
<path d="M203.84 70.5078C204.597 76.6107 207.752 78.4286 212.17 78.4286C214.442 78.4286 216.461 77.0003 217.471 74.7928H228.073C225.928 82.9733 220.5 86.9986 212.044 86.9986C209.646 86.9986 207.121 86.6091 204.849 85.7001C202.704 84.7912 200.81 83.4927 199.296 81.9345C197.655 80.2465 196.519 78.1689 195.636 75.9615C194.752 73.4944 194.373 70.8974 194.373 68.3004C194.373 65.5736 194.752 62.9766 195.636 60.3796C196.393 58.1722 197.529 56.0946 199.043 54.4066C200.558 52.7186 202.451 51.4201 204.471 50.641C209.015 48.8231 214.063 48.8231 218.607 50.5111C220.753 51.4201 222.52 52.7186 224.034 54.5364C225.549 56.3543 226.685 58.5618 227.442 60.7692C228.199 63.496 228.578 66.2228 228.452 68.9496C228.452 69.3392 228.326 70.6377 228.326 70.6377L203.84 70.5078ZM219.49 63.8855C218.986 60.7692 218.228 59.6005 217.092 58.5618C215.704 57.3931 213.811 56.8737 212.044 57.0036C210.277 57.0036 208.51 57.523 207.121 58.4319C205.48 59.7304 204.345 61.6781 203.966 63.7557L219.49 63.8855Z" fill="#1E1E1E"/>
</svg>
